<svg xmlns="http://www.w3.org/2000/svg" viewBox="-4 -4 32 32">
  <defs>
    <linearGradient id="bg" x1="-4" y1="-4" x2="28" y2="28" gradientUnits="userSpaceOnUse">
      <stop offset="0%" stop-color="#8b5cf6"/>
      <stop offset="100%" stop-color="#3730a3"/>
    </linearGradient>
  </defs>
  <!-- Background rounded square -->
  <rect x="-4" y="-4" width="32" height="32" rx="6.5" fill="url(#bg)"/>
  <!-- Tag: ghost outline -->
  <path d="M12.586 2.586A2 2 0 0 0 11.172 2H4a2 2 0 0 0-2 2v7.172a2 2 0 0 0 .586 1.414l8.704 8.704a2.426 2.426 0 0 0 3.42 0l6.58-6.58a2.426 2.426 0 0 0 0-3.42z"
        fill="white" fill-opacity="0.14" stroke="white" stroke-opacity="0.52" stroke-width="1.5" stroke-linecap="round" stroke-linejoin="round"/>
  <circle cx="7.5" cy="7.5" r="0.8" fill="white" fill-opacity="0.52"/>
  <!-- Download arrow: stem -->
  <line x1="12" y1="5" x2="12" y2="13.5" stroke="white" stroke-width="2" stroke-linecap="round"/>
  <!-- Download arrow: chevron -->
  <polyline points="8.5,10 12,14 15.5,10" fill="none" stroke="white" stroke-width="2" stroke-linecap="round" stroke-linejoin="round"/>
</svg>
